<svg xmlns="http://www.w3.org/2000/svg" viewBox="0 0 151.69 77.26" width="151.69" height="77.26">
  <path fill="#1c151f" d="M41.73,35.36v-.15c0-10.23-5.99-13.3-13.15-13.3-6.58,0-10.81,3.07-13.88,6.28L.52,14.03C5.93,7.6,16.74,0,32.82,0c20.17,0,35.22,9.06,35.22,34.78v40.45h-25.63l-.68-39.86Z"/>
  <path fill="#1c151f" d="M125.35,2.05h26.34v73.16h-25.02v-7.02c-7.32,6-12.58,9.07-22.39,9.07-14.05,0-24.87-7.32-24.87-26.92V2.05h26.34v42.58c0,6,2.49,8.34,7.46,8.34,4.54,0,7.46-2.05,11.12-4.97l1.02-.88V2.05Z"/>
  <circle fill="#ce5e9c" cx="16.54" cy="60.72" r="16.54"/>
</svg>
