<svg xmlns="http://www.w3.org/2000/svg" width="900" height="900" viewBox="0 0 900 900" font-family="Segoe UI, Helvetica, Arial, sans-serif">
  <defs>
    <linearGradient id="bar" x1="0" y1="0" x2="1" y2="0">
      <stop offset="0" stop-color="#d6346c"/>
      <stop offset="0.55" stop-color="#e98fc0"/>
      <stop offset="1" stop-color="#d6346c"/>
    </linearGradient>
  </defs>

  <rect width="900" height="900" fill="#ffffff"/>
  <rect width="900" height="6" fill="url(#bar)"/>

  <!-- Aunoo logo mark -->
  <g transform="translate(54,52) scale(0.42)">
    <path fill="#0f172a" d="M41.73,35.36v-.15c0-10.23-5.99-13.3-13.15-13.3-6.58,0-10.81,3.07-13.88,6.28L.52,14.03C5.93,7.6,16.74,0,32.82,0c20.17,0,35.22,9.06,35.22,34.78v40.45h-25.63l-.68-39.86Z"/>
    <path fill="#0f172a" d="M125.35,2.05h26.34v73.16h-25.02v-7.02c-7.32,6-12.58,9.07-22.39,9.07-14.05,0-24.87-7.32-24.87-26.92V2.05h26.34v42.58c0,6,2.49,8.34,7.46,8.34,4.54,0,7.46-2.05,11.12-4.97l1.02-.88V2.05Z"/>
    <circle fill="#d6346c" cx="16.54" cy="60.72" r="16.54"/>
  </g>
  <text x="128" y="60" fill="#0f172a" font-size="20" font-weight="700" letter-spacing="0.5">AUNOO</text>
  <text x="128" y="76" fill="#5b6472" font-size="10" letter-spacing="2.5" font-weight="400">NEWS-INTELLIGENCE</text>

  <text x="54" y="130" fill="#d6346c" font-size="13" font-weight="700" letter-spacing="1.5">SITUATION REPORT · TIMELINE</text>
  <text x="54" y="162" fill="#0f172a" font-size="27" font-weight="700">Competing influence campaigns over</text>
  <text x="54" y="194" fill="#0f172a" font-size="27" font-weight="700">America's AI data centers</text>

  <!-- vertical rail -->
  <line x1="66" y1="236" x2="66" y2="836" stroke="#e2e5ec" stroke-width="2"/>

  <!-- 1 -->
  <circle cx="66" cy="248" r="7" fill="#d6346c"/>
  <text x="94" y="245" fill="#d6346c" font-size="15" font-weight="700">Jan–Apr 2026</text>
  <text x="94" y="268" fill="#1e2430" font-size="15">Leading the Future raises $125m+; AI and crypto PAC funding reaches</text>
  <text x="94" y="288" fill="#1e2430" font-size="15">~$250–300m ahead of the midterms (Axios, Financial Times)</text>

  <!-- 2 -->
  <circle cx="66" cy="326" r="7" fill="#d6346c"/>
  <text x="94" y="323" fill="#d6346c" font-size="15" font-weight="700">1 May 2026</text>
  <text x="94" y="346" fill="#1e2430" font-size="15">WIRED reports Build American AI paying influencers to push pro-AI,</text>
  <text x="94" y="366" fill="#1e2430" font-size="15">China-threat messaging</text>

  <!-- 3 -->
  <circle cx="66" cy="404" r="7" fill="#d6346c"/>
  <text x="94" y="401" fill="#d6346c" font-size="15" font-weight="700">18 May 2026</text>
  <text x="94" y="424" fill="#1e2430" font-size="15">Bitcoin Policy Institute publishes Part I of its "foreign influence" report</text>

  <!-- 4 -->
  <circle cx="66" cy="474" r="7" fill="#d6346c"/>
  <text x="94" y="471" fill="#d6346c" font-size="15" font-weight="700">4 Jun 2026</text>
  <text x="94" y="494" fill="#1e2430" font-size="15">GOP House Energy &amp; Commerce members request FBI briefings, citing</text>
  <text x="94" y="514" fill="#1e2430" font-size="15">the BPI and Power the Future reports</text>

  <!-- 5 -->
  <circle cx="66" cy="552" r="7" fill="#d6346c"/>
  <text x="94" y="549" fill="#d6346c" font-size="15" font-weight="700">10 Jun 2026</text>
  <text x="94" y="572" fill="#1e2430" font-size="15">OpenAI's "Data Center Bandwagon" report: likely China-linked accounts,</text>
  <text x="94" y="592" fill="#1e2430" font-size="15">but no meaningful breakout</text>

  <!-- 6 -->
  <circle cx="66" cy="630" r="7" fill="#d6346c"/>
  <text x="94" y="627" fill="#d6346c" font-size="15" font-weight="700">10–11 Jun 2026</text>
  <text x="94" y="650" fill="#1e2430" font-size="15">Senator Tom Cotton and Rep. John Moolenaar seek a DOJ investigation</text>

  <!-- 7 -->
  <circle cx="66" cy="700" r="7" fill="#d6346c"/>
  <text x="94" y="697" fill="#d6346c" font-size="15" font-weight="700">12 Jun 2026</text>
  <text x="94" y="720" fill="#1e2430" font-size="15">WIRED: "China Didn't Make Americans Hate Data Centers" — experts skeptical</text>

  <!-- 8 -->
  <circle cx="66" cy="770" r="7" fill="#d6346c"/>
  <text x="94" y="767" fill="#d6346c" font-size="15" font-weight="700">29–30 Jun 2026</text>
  <text x="94" y="790" fill="#1e2430" font-size="15">BPI publishes Part II, amplifying the $23.6bn "blocked investment" claim</text>

  <line x1="54" y1="860" x2="846" y2="860" stroke="#e2e5ec" stroke-width="1"/>
  <text x="54" y="882" fill="#5b6472" font-size="12">Compiled via Aunoo news-intelligence · as of 2 July 2026 · confidence levels stated in the full report</text>
</svg>
